<mxfile host="app.diagrams.net" modified="2024-01-13T09:45:53.542Z" agent="Mozilla/5.0 (Macintosh; Intel Mac OS X 10_15_7) AppleWebKit/537.36 (KHTML, like Gecko) Chrome/120.0.0.0 Safari/537.36" etag="A5oGj30IKHjbdmOgN3_J" version="22.1.18" type="github">
  <diagram name="Page-1" id="s3heozkomzlUVeIXDbwT">
    <mxGraphModel dx="59" dy="1677" grid="1" gridSize="10" guides="1" tooltips="1" connect="1" arrows="1" fold="1" page="1" pageScale="1" pageWidth="850" pageHeight="1100" math="0" shadow="0">
      <root>
        <mxCell id="0" />
        <mxCell id="1" parent="0" />
        <mxCell id="wDnHBF98lUiI10txaaC0-166" value="" style="edgeStyle=orthogonalEdgeStyle;rounded=0;orthogonalLoop=1;jettySize=auto;html=1;" parent="1" source="wDnHBF98lUiI10txaaC0-134" target="wDnHBF98lUiI10txaaC0-160" edge="1">
          <mxGeometry relative="1" as="geometry" />
        </mxCell>
        <mxCell id="wDnHBF98lUiI10txaaC0-134" value="Write Config" style="rounded=0;whiteSpace=wrap;html=1;fillColor=#e1d5e7;strokeColor=#9673a6;" parent="1" vertex="1">
          <mxGeometry x="1000" y="-160" width="120" height="40" as="geometry" />
        </mxCell>
        <mxCell id="wDnHBF98lUiI10txaaC0-136" value="Config Post Data" style="rounded=0;whiteSpace=wrap;html=1;fillColor=#ffe6cc;strokeColor=#d79b00;" parent="1" vertex="1">
          <mxGeometry x="1160" y="-120" width="120" height="40" as="geometry" />
        </mxCell>
        <mxCell id="wDnHBF98lUiI10txaaC0-140" value="" style="endArrow=classic;html=1;rounded=0;exitX=1;exitY=0.5;exitDx=0;exitDy=0;entryX=0;entryY=0.5;entryDx=0;entryDy=0;" parent="1" source="wDnHBF98lUiI10txaaC0-134" target="wDnHBF98lUiI10txaaC0-136" edge="1">
          <mxGeometry width="50" height="50" relative="1" as="geometry">
            <mxPoint x="1050" y="20" as="sourcePoint" />
            <mxPoint x="1100" y="-30" as="targetPoint" />
          </mxGeometry>
        </mxCell>
        <mxCell id="wDnHBF98lUiI10txaaC0-149" value="DC" style="rounded=0;whiteSpace=wrap;html=1;fillColor=#e1d5e7;strokeColor=#9673a6;" parent="1" vertex="1">
          <mxGeometry x="1000" y="-280" width="120" height="40" as="geometry" />
        </mxCell>
        <mxCell id="wDnHBF98lUiI10txaaC0-150" value="Task List" style="rounded=0;whiteSpace=wrap;html=1;fillColor=#ffe6cc;strokeColor=#d79b00;" parent="1" vertex="1">
          <mxGeometry x="1160" y="-280" width="120" height="40" as="geometry" />
        </mxCell>
        <mxCell id="wDnHBF98lUiI10txaaC0-151" value="DMA Engine" style="rounded=0;whiteSpace=wrap;html=1;fillColor=#d5e8d4;strokeColor=#82b366;" parent="1" vertex="1">
          <mxGeometry x="1320" y="-280" width="120" height="40" as="geometry" />
        </mxCell>
        <mxCell id="wDnHBF98lUiI10txaaC0-153" value="Link" style="rounded=0;whiteSpace=wrap;html=1;fillColor=#f8cecc;strokeColor=#b85450;" parent="1" vertex="1">
          <mxGeometry x="1480" y="-280" width="120" height="40" as="geometry" />
        </mxCell>
        <mxCell id="wDnHBF98lUiI10txaaC0-155" value="DMA Engine" style="rounded=0;whiteSpace=wrap;html=1;fillColor=#d5e8d4;strokeColor=#82b366;" parent="1" vertex="1">
          <mxGeometry x="1320" y="-80" width="120" height="40" as="geometry" />
        </mxCell>
        <mxCell id="wDnHBF98lUiI10txaaC0-156" value="" style="endArrow=classic;html=1;rounded=0;exitX=0;exitY=0.5;exitDx=0;exitDy=0;entryX=1;entryY=0.5;entryDx=0;entryDy=0;" parent="1" source="wDnHBF98lUiI10txaaC0-159" target="wDnHBF98lUiI10txaaC0-161" edge="1">
          <mxGeometry width="50" height="50" relative="1" as="geometry">
            <mxPoint x="1130" y="-130" as="sourcePoint" />
            <mxPoint x="1280" y="-20" as="targetPoint" />
          </mxGeometry>
        </mxCell>
        <mxCell id="wDnHBF98lUiI10txaaC0-159" value="Add Reply Value" style="rounded=0;whiteSpace=wrap;html=1;fillColor=#d5e8d4;strokeColor=#82b366;" parent="1" vertex="1">
          <mxGeometry x="1320" width="120" height="40" as="geometry" />
        </mxCell>
        <mxCell id="wDnHBF98lUiI10txaaC0-165" value="" style="edgeStyle=orthogonalEdgeStyle;rounded=0;orthogonalLoop=1;jettySize=auto;html=1;" parent="1" source="wDnHBF98lUiI10txaaC0-160" target="wDnHBF98lUiI10txaaC0-164" edge="1">
          <mxGeometry relative="1" as="geometry" />
        </mxCell>
        <mxCell id="wDnHBF98lUiI10txaaC0-170" value="" style="edgeStyle=orthogonalEdgeStyle;rounded=0;orthogonalLoop=1;jettySize=auto;html=1;" parent="1" source="wDnHBF98lUiI10txaaC0-160" target="wDnHBF98lUiI10txaaC0-161" edge="1">
          <mxGeometry relative="1" as="geometry" />
        </mxCell>
        <mxCell id="wDnHBF98lUiI10txaaC0-160" value="Check" style="rounded=0;whiteSpace=wrap;html=1;fillColor=#e1d5e7;strokeColor=#9673a6;" parent="1" vertex="1">
          <mxGeometry x="1000" y="40" width="120" height="40" as="geometry" />
        </mxCell>
        <mxCell id="wDnHBF98lUiI10txaaC0-161" value="Reply Address" style="rounded=0;whiteSpace=wrap;html=1;fillColor=#ffe6cc;strokeColor=#d79b00;" parent="1" vertex="1">
          <mxGeometry x="1160" y="40" width="120" height="40" as="geometry" />
        </mxCell>
        <mxCell id="wDnHBF98lUiI10txaaC0-184" value="" style="edgeStyle=orthogonalEdgeStyle;rounded=0;orthogonalLoop=1;jettySize=auto;html=1;" parent="1" source="wDnHBF98lUiI10txaaC0-164" target="wDnHBF98lUiI10txaaC0-183" edge="1">
          <mxGeometry relative="1" as="geometry" />
        </mxCell>
        <mxCell id="wDnHBF98lUiI10txaaC0-164" value="Write Config" style="rounded=0;whiteSpace=wrap;html=1;fillColor=#e1d5e7;strokeColor=#9673a6;" parent="1" vertex="1">
          <mxGeometry x="1000" y="120" width="120" height="40" as="geometry" />
        </mxCell>
        <mxCell id="wDnHBF98lUiI10txaaC0-167" value="Config Post Flag" style="rounded=0;whiteSpace=wrap;html=1;fillColor=#ffe6cc;strokeColor=#d79b00;" parent="1" vertex="1">
          <mxGeometry x="1160" y="160" width="120" height="40" as="geometry" />
        </mxCell>
        <mxCell id="wDnHBF98lUiI10txaaC0-168" value="" style="endArrow=classic;html=1;rounded=0;exitX=1;exitY=0.5;exitDx=0;exitDy=0;entryX=0;entryY=0.5;entryDx=0;entryDy=0;" parent="1" source="wDnHBF98lUiI10txaaC0-136" target="wDnHBF98lUiI10txaaC0-155" edge="1">
          <mxGeometry width="50" height="50" relative="1" as="geometry">
            <mxPoint x="1130" y="-130" as="sourcePoint" />
            <mxPoint x="1170" y="-90" as="targetPoint" />
          </mxGeometry>
        </mxCell>
        <mxCell id="wDnHBF98lUiI10txaaC0-171" value="" style="endArrow=classic;html=1;rounded=0;exitX=1;exitY=0.5;exitDx=0;exitDy=0;entryX=0;entryY=0.5;entryDx=0;entryDy=0;" parent="1" source="wDnHBF98lUiI10txaaC0-164" target="wDnHBF98lUiI10txaaC0-167" edge="1">
          <mxGeometry width="50" height="50" relative="1" as="geometry">
            <mxPoint x="1130" y="-170" as="sourcePoint" />
            <mxPoint x="1170" y="-130" as="targetPoint" />
          </mxGeometry>
        </mxCell>
        <mxCell id="wDnHBF98lUiI10txaaC0-172" value="" style="edgeStyle=orthogonalEdgeStyle;rounded=0;orthogonalLoop=1;jettySize=auto;html=1;" parent="1" source="wDnHBF98lUiI10txaaC0-173" target="wDnHBF98lUiI10txaaC0-175" edge="1">
          <mxGeometry relative="1" as="geometry" />
        </mxCell>
        <mxCell id="wDnHBF98lUiI10txaaC0-173" value="DMA Engine" style="rounded=0;whiteSpace=wrap;html=1;fillColor=#d5e8d4;strokeColor=#82b366;" parent="1" vertex="1">
          <mxGeometry x="1320" y="200" width="120" height="40" as="geometry" />
        </mxCell>
        <mxCell id="wDnHBF98lUiI10txaaC0-174" value="" style="endArrow=classic;html=1;rounded=0;exitX=0;exitY=0.5;exitDx=0;exitDy=0;entryX=1;entryY=0.5;entryDx=0;entryDy=0;" parent="1" source="wDnHBF98lUiI10txaaC0-175" edge="1">
          <mxGeometry width="50" height="50" relative="1" as="geometry">
            <mxPoint x="1130" y="150" as="sourcePoint" />
            <mxPoint x="1280" y="340" as="targetPoint" />
          </mxGeometry>
        </mxCell>
        <mxCell id="wDnHBF98lUiI10txaaC0-175" value="Add Reply Value" style="rounded=0;whiteSpace=wrap;html=1;fillColor=#d5e8d4;strokeColor=#82b366;" parent="1" vertex="1">
          <mxGeometry x="1320" y="280" width="120" height="40" as="geometry" />
        </mxCell>
        <mxCell id="wDnHBF98lUiI10txaaC0-176" value="" style="endArrow=classic;html=1;rounded=0;exitX=1;exitY=0.5;exitDx=0;exitDy=0;entryX=0;entryY=0.5;entryDx=0;entryDy=0;" parent="1" target="wDnHBF98lUiI10txaaC0-173" edge="1">
          <mxGeometry width="50" height="50" relative="1" as="geometry">
            <mxPoint x="1280" y="180" as="sourcePoint" />
            <mxPoint x="1170" y="190" as="targetPoint" />
          </mxGeometry>
        </mxCell>
        <mxCell id="wDnHBF98lUiI10txaaC0-177" value="Reply Address" style="rounded=0;whiteSpace=wrap;html=1;fillColor=#ffe6cc;strokeColor=#d79b00;" parent="1" vertex="1">
          <mxGeometry x="1160" y="320" width="120" height="40" as="geometry" />
        </mxCell>
        <mxCell id="wDnHBF98lUiI10txaaC0-182" value="" style="edgeStyle=orthogonalEdgeStyle;rounded=0;orthogonalLoop=1;jettySize=auto;html=1;" parent="1" source="wDnHBF98lUiI10txaaC0-178" target="wDnHBF98lUiI10txaaC0-177" edge="1">
          <mxGeometry relative="1" as="geometry" />
        </mxCell>
        <mxCell id="wDnHBF98lUiI10txaaC0-196" value="" style="edgeStyle=orthogonalEdgeStyle;rounded=0;orthogonalLoop=1;jettySize=auto;html=1;" parent="1" source="wDnHBF98lUiI10txaaC0-178" target="wDnHBF98lUiI10txaaC0-195" edge="1">
          <mxGeometry relative="1" as="geometry" />
        </mxCell>
        <mxCell id="wDnHBF98lUiI10txaaC0-178" value="Check" style="rounded=0;whiteSpace=wrap;html=1;fillColor=#e1d5e7;strokeColor=#9673a6;" parent="1" vertex="1">
          <mxGeometry x="1000" y="320" width="120" height="40" as="geometry" />
        </mxCell>
        <mxCell id="wDnHBF98lUiI10txaaC0-179" value="Link" style="rounded=0;whiteSpace=wrap;html=1;fillColor=#f8cecc;strokeColor=#b85450;" parent="1" vertex="1">
          <mxGeometry x="1480" y="-40" width="120" height="40" as="geometry" />
        </mxCell>
        <mxCell id="wDnHBF98lUiI10txaaC0-180" value="" style="endArrow=classic;html=1;rounded=0;exitX=1;exitY=0.5;exitDx=0;exitDy=0;entryX=0;entryY=0.5;entryDx=0;entryDy=0;" parent="1" source="wDnHBF98lUiI10txaaC0-155" target="wDnHBF98lUiI10txaaC0-179" edge="1">
          <mxGeometry width="50" height="50" relative="1" as="geometry">
            <mxPoint x="1290" y="-90" as="sourcePoint" />
            <mxPoint x="1330" y="-50" as="targetPoint" />
          </mxGeometry>
        </mxCell>
        <mxCell id="wDnHBF98lUiI10txaaC0-181" value="" style="endArrow=classic;html=1;rounded=0;exitX=0;exitY=0.5;exitDx=0;exitDy=0;entryX=1;entryY=0.5;entryDx=0;entryDy=0;" parent="1" source="wDnHBF98lUiI10txaaC0-179" target="wDnHBF98lUiI10txaaC0-159" edge="1">
          <mxGeometry width="50" height="50" relative="1" as="geometry">
            <mxPoint x="1450" y="-50" as="sourcePoint" />
            <mxPoint x="1490" y="-10" as="targetPoint" />
          </mxGeometry>
        </mxCell>
        <mxCell id="wDnHBF98lUiI10txaaC0-185" value="" style="edgeStyle=orthogonalEdgeStyle;rounded=0;orthogonalLoop=1;jettySize=auto;html=1;" parent="1" source="wDnHBF98lUiI10txaaC0-183" target="wDnHBF98lUiI10txaaC0-178" edge="1">
          <mxGeometry relative="1" as="geometry" />
        </mxCell>
        <mxCell id="wDnHBF98lUiI10txaaC0-183" value="Ca&amp;amp;Config&amp;amp;DMA" style="rounded=0;whiteSpace=wrap;html=1;fillColor=#e1d5e7;strokeColor=#9673a6;" parent="1" vertex="1">
          <mxGeometry x="1000" y="220" width="120" height="40" as="geometry" />
        </mxCell>
        <mxCell id="wDnHBF98lUiI10txaaC0-186" value="Link" style="rounded=0;whiteSpace=wrap;html=1;fillColor=#f8cecc;strokeColor=#b85450;" parent="1" vertex="1">
          <mxGeometry x="1480" y="240" width="120" height="40" as="geometry" />
        </mxCell>
        <mxCell id="wDnHBF98lUiI10txaaC0-187" value="" style="endArrow=classic;html=1;rounded=0;exitX=1;exitY=0.5;exitDx=0;exitDy=0;entryX=0;entryY=0.5;entryDx=0;entryDy=0;" parent="1" target="wDnHBF98lUiI10txaaC0-186" edge="1">
          <mxGeometry width="50" height="50" relative="1" as="geometry">
            <mxPoint x="1440" y="220" as="sourcePoint" />
            <mxPoint x="1330" y="230" as="targetPoint" />
          </mxGeometry>
        </mxCell>
        <mxCell id="wDnHBF98lUiI10txaaC0-188" value="" style="endArrow=classic;html=1;rounded=0;exitX=0;exitY=0.5;exitDx=0;exitDy=0;entryX=1;entryY=0.5;entryDx=0;entryDy=0;" parent="1" source="wDnHBF98lUiI10txaaC0-186" edge="1">
          <mxGeometry width="50" height="50" relative="1" as="geometry">
            <mxPoint x="1450" y="230" as="sourcePoint" />
            <mxPoint x="1440" y="300" as="targetPoint" />
          </mxGeometry>
        </mxCell>
        <mxCell id="wDnHBF98lUiI10txaaC0-193" value="" style="edgeStyle=orthogonalEdgeStyle;rounded=0;orthogonalLoop=1;jettySize=auto;html=1;" parent="1" source="wDnHBF98lUiI10txaaC0-189" target="wDnHBF98lUiI10txaaC0-192" edge="1">
          <mxGeometry relative="1" as="geometry" />
        </mxCell>
        <mxCell id="wDnHBF98lUiI10txaaC0-189" value="Check Free Flag" style="rounded=0;whiteSpace=wrap;html=1;fillColor=#e1d5e7;strokeColor=#9673a6;" parent="1" vertex="1">
          <mxGeometry x="1000" y="480" width="120" height="40" as="geometry" />
        </mxCell>
        <mxCell id="wDnHBF98lUiI10txaaC0-191" value="Link" style="rounded=0;whiteSpace=wrap;html=1;fillColor=#f8cecc;strokeColor=#b85450;" parent="1" vertex="1">
          <mxGeometry x="1480" y="400" width="120" height="40" as="geometry" />
        </mxCell>
        <mxCell id="wDnHBF98lUiI10txaaC0-192" value="Free Flag" style="rounded=0;whiteSpace=wrap;html=1;fillColor=#ffe6cc;strokeColor=#d79b00;" parent="1" vertex="1">
          <mxGeometry x="1160" y="480" width="120" height="40" as="geometry" />
        </mxCell>
        <mxCell id="wDnHBF98lUiI10txaaC0-194" value="" style="endArrow=classic;html=1;rounded=0;exitX=0;exitY=0.5;exitDx=0;exitDy=0;entryX=1;entryY=0.5;entryDx=0;entryDy=0;" parent="1" source="wDnHBF98lUiI10txaaC0-191" target="wDnHBF98lUiI10txaaC0-192" edge="1">
          <mxGeometry width="50" height="50" relative="1" as="geometry">
            <mxPoint x="1330" y="310" as="sourcePoint" />
            <mxPoint x="1290" y="350" as="targetPoint" />
          </mxGeometry>
        </mxCell>
        <mxCell id="wDnHBF98lUiI10txaaC0-197" value="" style="edgeStyle=orthogonalEdgeStyle;rounded=0;orthogonalLoop=1;jettySize=auto;html=1;" parent="1" source="wDnHBF98lUiI10txaaC0-195" target="wDnHBF98lUiI10txaaC0-189" edge="1">
          <mxGeometry relative="1" as="geometry" />
        </mxCell>
        <mxCell id="wDnHBF98lUiI10txaaC0-195" value="Ca&amp;amp;Config&amp;amp;DMA" style="rounded=0;whiteSpace=wrap;html=1;fillColor=#e1d5e7;strokeColor=#9673a6;" parent="1" vertex="1">
          <mxGeometry x="1000" y="400" width="120" height="40" as="geometry" />
        </mxCell>
      </root>
    </mxGraphModel>
  </diagram>
</mxfile>
